<svg width="14" height="14" viewBox="0 0 14 14" fill="none" xmlns="http://www.w3.org/2000/svg">
<path d="M7.00566 13.2649C6.63816 13.2649 6.27649 13.1424 5.99066 12.8974L5.06899 12.1099C4.97566 12.0282 4.74232 11.9465 4.61982 11.9465H3.59899C2.73566 11.9465 2.03566 11.2465 2.03566 10.3832V9.38569C2.03566 9.26319 1.95399 9.02986 1.87816 8.94236L1.08482 8.00902C0.606491 7.44319 0.606491 6.55652 1.08482 5.98486L1.87816 5.05152C1.95399 4.96402 2.03566 4.73069 2.03566 4.60819V3.61652C2.03566 2.75319 2.73566 2.05319 3.59899 2.05319H4.60816C4.73066 2.05319 4.95816 1.96569 5.05732 1.88402L5.97899 1.09652C6.55066 0.612357 7.44316 0.612357 8.01482 1.09652L8.93649 1.88402C9.02982 1.96569 9.26899 2.04736 9.39149 2.04736H10.3832C11.2465 2.04736 11.9465 2.74736 11.9465 3.61069V4.60236C11.9465 4.72486 12.034 4.95236 12.1157 5.05152L12.9032 5.97319C13.3932 6.55069 13.3873 7.44319 12.9032 8.00902L12.1157 8.93069C12.034 9.02986 11.9523 9.25736 11.9523 9.37986V10.3715C11.9523 11.2349 11.2523 11.9349 10.389 11.9349H9.39733C9.27483 11.9349 9.04733 12.0224 8.94232 12.104L8.02066 12.8915C7.73482 13.1424 7.36732 13.2649 7.00566 13.2649ZM3.59899 2.92819C3.21982 2.92819 2.91066 3.23736 2.91066 3.61652V4.60819C2.91066 4.94069 2.75899 5.36069 2.54316 5.61736L1.74982 6.55069C1.55149 6.78986 1.55149 7.20986 1.74982 7.44319L2.53732 8.37069C2.74732 8.60986 2.90482 9.04736 2.90482 9.37986V10.3774C2.90482 10.7565 3.21399 11.0657 3.59316 11.0657H4.60816C4.93482 11.0657 5.36649 11.2232 5.62316 11.439L6.55066 12.2324C6.78982 12.4365 7.20983 12.4365 7.44899 12.2324L8.37066 11.4449C8.63316 11.2232 9.05899 11.0715 9.38566 11.0715H10.3773C10.7565 11.0715 11.0657 10.7624 11.0657 10.3832V9.39152C11.0657 9.06486 11.2232 8.63902 11.439 8.37652L12.2323 7.44902C12.4365 7.20986 12.4365 6.78986 12.2323 6.55069L11.4448 5.62902C11.2232 5.36652 11.0715 4.94069 11.0715 4.61402V3.61652C11.0715 3.23736 10.7623 2.92819 10.3832 2.92819H9.39149C9.05899 2.92819 8.62733 2.77069 8.37066 2.55486L7.44316 1.76152C7.20399 1.55736 6.78982 1.55736 6.54482 1.76152L5.62899 2.55486C5.36649 2.77069 4.94066 2.92819 4.60816 2.92819H3.59899Z" fill="#FF281B"/>
<path d="M6.99984 9.8405C6.679 9.8405 6.4165 9.57799 6.4165 9.25716C6.4165 8.93633 6.67317 8.67383 6.99984 8.67383C7.32067 8.67383 7.58317 8.93633 7.58317 9.25716C7.58317 9.57799 7.3265 9.8405 6.99984 9.8405Z" fill="#FF281B"/>
<path d="M7 8.00302C6.76083 8.00302 6.5625 7.80469 6.5625 7.56552V4.74219C6.5625 4.50302 6.76083 4.30469 7 4.30469C7.23917 4.30469 7.4375 4.50302 7.4375 4.74219V7.55969C7.4375 7.80469 7.245 8.00302 7 8.00302Z" fill="#FF281B"/>
</svg>
